<?xml version="1.0" encoding="UTF-8"?>
<svg width="42px" height="42px" viewBox="0 0 42 42" version="1.1" xmlns="http://www.w3.org/2000/svg" xmlns:xlink="http://www.w3.org/1999/xlink">
    <!-- Generator: Sketch 50 (54983) - http://www.bohemiancoding.com/sketch -->
    <title>大众@2x</title>
    <desc>Created with Sketch.</desc>
    <defs>
        <linearGradient x1="50%" y1="0%" x2="50%" y2="97.0255532%" id="linearGradient-1">
            <stop stop-color="#9BE3F6" offset="0%"></stop>
            <stop stop-color="#98E5FB" offset="74.7643478%"></stop>
            <stop stop-color="#69C5E1" offset="77.479949%"></stop>
            <stop stop-color="#79E0FF" offset="100%"></stop>
        </linearGradient>
        <path d="M8.98849576,0.0740752638 C10.1480932,0.153609826 11.0468333,0.316593681 11.6847162,0.56302683 C12.3225991,0.809459979 13.1968324,1.28418928 14.307416,1.98721474 C14.7005198,2.28648261 15.0144409,2.68748501 15.2491793,3.19022195 C15.4839177,3.69295889 15.7885029,4.63596027 16.1629348,6.01922607 L16.1629348,13.0061494 C16.6088653,13.3571396 16.9574663,13.6791627 17.2087377,13.9722185 C17.4795736,14.2880922 17.6980268,14.6410984 17.8640974,15.0312372 C17.903596,15.6660151 17.8181677,15.9837906 17.6078126,15.9845636 C17.3618209,15.9854676 16.8996312,15.5750997 16.4127234,15.3023325 C16.2407969,15.2060188 16.0926277,15.1056313 15.9682158,15.0011702 C15.7566441,17.2357251 15.6508583,18.9780023 15.6508583,20.2280016 C15.6508583,21.8158273 15.7418059,24.5139703 15.9237012,28.3224305 C15.9345587,29.5392866 15.843611,30.5523367 15.6508583,31.3615808 C15.4581055,32.1708249 15.1573326,33.1850193 14.7485394,34.4041641 C14.2665713,34.9769368 13.7137279,35.3454896 13.090009,35.5098224 C12.4662902,35.6741552 11.0991191,35.8011134 8.98849576,35.890697 C6.87454649,35.7805165 5.50571243,35.6430746 4.88199359,35.4787418 C4.25827476,35.314409 3.70543132,34.9458563 3.22346327,34.3730835 C2.81467008,33.1539388 2.51389711,32.1397444 2.32114436,31.3305003 C2.1283916,30.5212562 2.03744395,29.5082061 2.04830142,28.29135 C2.23019671,24.4828897 2.32114436,21.7847468 2.32114436,20.1969211 C2.32114436,18.9376526 2.21378384,17.1787785 1.9990628,14.9202987 C1.85810461,15.0540648 1.67969757,15.1814093 1.46384168,15.3023325 C0.976933803,15.5750997 0.514744116,15.9854676 0.268752475,15.9845636 C0.0583973219,15.9837906 -0.0270309724,15.6660151 0.0124675924,15.0312372 C0.178538219,14.6410984 0.396991474,14.2880922 0.667827358,13.9722185 C0.936753656,13.6585719 1.31716716,13.3117446 1.80906786,12.9317363 L1.80906787,5.98814553 C2.18349978,4.60487972 2.48808493,3.66187835 2.72282332,3.15914141 C2.9575617,2.65640447 3.27148279,2.25540206 3.66458659,1.95613419 C4.77517028,1.25310874 5.64940357,0.778379431 6.28728645,0.531946283 C6.92516934,0.285513134 7.82557244,0.133578159 8.98849576,0.0761413574 Z" id="path-2"></path>
        <filter x="-16.8%" y="-8.4%" width="133.6%" height="116.8%" filterUnits="objectBoundingBox" id="filter-4">
            <feOffset dx="0" dy="0" in="SourceAlpha" result="shadowOffsetOuter1"></feOffset>
            <feGaussianBlur stdDeviation="1" in="shadowOffsetOuter1" result="shadowBlurOuter1"></feGaussianBlur>
            <feColorMatrix values="0 0 0 0 0.219607843   0 0 0 0 0.258823529   0 0 0 0 0.301960784  0 0 0 0.7 0" type="matrix" in="shadowBlurOuter1"></feColorMatrix>
        </filter>
        <path d="M8.99196594,0.0773845817 C7.82672917,0.133992567 6.92516934,0.285513134 6.28728645,0.531946283 C5.64940357,0.778379431 4.77517028,1.25310874 3.66458659,1.95613419 C3.27148279,2.25540206 2.9575617,2.65640447 2.72282332,3.15914141 C2.48808493,3.66187835 2.18349978,4.60487972 1.80906787,5.98814553 L1.80906787,12.8032308 C2.15045219,15.9518315 2.32114436,18.3200447 2.32114436,19.9078704 C2.32114436,21.495696 2.21880362,24.2426984 2.01412214,28.1488774 C2.02605086,29.4607152 2.1283916,30.5212562 2.32114436,31.3305003 C2.51389711,32.1397444 2.81467008,33.1539388 3.22346327,34.3730835 C3.71257906,34.9562889 4.26899637,35.3300579 4.89271521,35.4943908 C5.51643404,35.6587236 6.88003126,35.7908256 8.98350687,35.890697 L8.99196594,35.0198348 C6.25913212,34.9105741 4.65597023,34.5559265 4.18248029,33.9558921 C4.16506797,33.9338261 3.80009186,33.5069638 3.66458659,33.1424437 C3.52908133,32.7779236 2.75388822,30.2817023 2.72282332,29.0194161 C2.9367975,29.1136042 4.30730126,30.061315 4.84882549,30.3675963 C5.0299365,29.1954658 5.21994924,27.2916912 5.29646695,26.6460627 C5.32872221,26.0063389 4.88199359,16.5446212 3.66458659,12.1676547 C3.01879344,9.84582237 2.72282332,7.08776557 2.72282332,4.23909948 C3.40676066,3.73567004 3.79471502,3.45856372 4.57768282,2.9326445 C4.72626574,2.27822496 4.70990214,2.2050608 4.7979685,1.83015367 C4.86599416,1.54056176 5.54118142,1.03111782 6.69779508,0.608500119 C7.1015422,0.460974038 7.86626582,0.283935526 8.99196594,0.0773845817 Z" id="path-5"></path>
        <path d="M16.1401755,0.0782623291 C14.9937159,0.147375151 14.1015446,0.305148137 13.4636617,0.551581286 C12.8257788,0.798014434 11.9515455,1.27274374 10.8409618,1.9757692 C10.447858,2.27503707 10.1339369,2.67603947 9.89919856,3.17877641 C9.66446018,3.68151335 9.35987503,4.62451472 8.98544312,6.00778053 L8.98544312,12.8228658 C9.32682744,15.9714665 9.4975196,18.3396797 9.4975196,19.9275054 C9.4975196,21.515331 9.39517886,24.2623334 9.19049738,28.1685124 C9.20242611,29.4803502 9.30476685,30.5408912 9.4975196,31.3501353 C9.69027236,32.1593794 9.99104533,33.1735738 10.3998385,34.3927186 C10.8818066,34.9654913 11.43465,35.334044 12.0583688,35.4983768 C12.6820877,35.6627096 14.0503753,35.7935575 16.1632316,35.8909205 L16.1632316,34.9986961 C13.356202,34.9881838 11.7622708,34.646697 11.381438,33.9742357 C11.3645032,33.9443327 10.930811,33.46122 10.8409618,33.1620787 C10.7511127,32.8629374 9.93026346,30.3013374 9.89919856,29.0390511 C10.1131727,29.1332392 11.4328195,30.0433005 11.9743437,30.3495818 C12.0983116,29.2124737 12.2818777,27.3170866 12.3041532,26.6624679 C12.3364085,26.0227441 12.0583688,16.5642562 10.8409618,12.1872897 C10.1951687,9.86545737 10.1187727,6.87770899 10.1187727,4.0290429 C10.80271,3.52561346 10.9710903,3.47819873 11.7540581,2.9522795 C11.902641,2.29785997 11.8862774,2.2246958 11.9743437,1.84978868 C12.0423694,1.56019676 12.7175567,1.05075282 13.8741703,0.628135122 C14.2779174,0.480609041 15.0332525,0.29731811 16.1401755,0.0782623291 Z" id="path-7"></path>
    </defs>
    <g id="叫车5-14右侧操作" stroke="none" stroke-width="1" fill="none" fill-rule="evenodd">
        <g id="04" transform="translate(-775.000000, -221.000000)">
            <g id="大众" transform="translate(796.000000, 242.000000) rotate(-90.000000) translate(-796.000000, -242.000000) translate(775.000000, 221.000000)">
                <g id="Group-9" transform="translate(12.000000, 3.000000)">
                    <g id="Path-14-+-Path-14-Mask-Copy">
                        <mask id="mask-3" fill="white">
                            <use xlink:href="#path-2"></use>
                        </mask>
                        <g id="Mask">
                            <use fill="black" fill-opacity="1" filter="url(#filter-4)" xlink:href="#path-2"></use>
                            <use fill="url(#linearGradient-1)" fill-rule="evenodd" xlink:href="#path-2"></use>
                        </g>
                        <mask id="mask-6" fill="white">
                            <use xlink:href="#path-5"></use>
                        </mask>
                        <use id="Mask" fill="#5ABDD3" xlink:href="#path-5"></use>
                        <path d="M5.02871388,0.847791452 C4.48939473,0.826601331 3.9918228,1.06441724 3.5359981,1.56123919 C3.08017341,2.05806114 2.63743414,3.06925288 2.20778032,4.59481443 L4.59957121,2.92878085 L5.02871388,0.847791452 Z" id="Path-14" fill="#FFFFFF" mask="url(#mask-6)"></path>
                        <mask id="mask-8" fill="white">
                            <use xlink:href="#path-7"></use>
                        </mask>
                        <use id="Mask" fill="#5ABDD3" transform="translate(12.574337, 17.984591) scale(-1, 1) translate(-12.574337, -17.984591) " xlink:href="#path-7"></use>
                        <path d="M15.7696224,0.845987554 C15.2303033,0.824797433 14.7327313,1.06261335 14.2769066,1.55943529 C13.8210819,2.05625724 13.3783427,3.06744899 12.9486889,4.59301053 L15.3404797,2.92697695 L15.7696224,0.845987554 Z" id="Path-14" fill="#FFFFFF" mask="url(#mask-8)" transform="translate(14.359156, 2.718849) scale(-1, 1) translate(-14.359156, -2.718849) "></path>
                    </g>
                    <path d="M4.34836152,15.67369 L3.20457666,10.2272992 C4.75801496,8.66056172 6.70488281,7.87719298 9.04518021,7.87719298 C11.3854776,7.87719298 13.2711047,8.66056172 14.7020615,10.2272992 L13.7422423,15.67369 C12.0362993,14.8492892 10.4793729,14.4370888 9.07146292,14.4370888 C7.66355299,14.4370888 6.08918586,14.8492892 4.34836152,15.67369 Z" id="Path-11" fill="#306F88"></path>
                    <path d="M4.15871495,14.7929598 L3.20457666,10.2272992 C4.75801496,8.66056172 6.70488281,7.87719298 9.04518021,7.87719298 C10.750728,7.87719298 12.2147952,8.29324913 13.4373818,9.12536142 C12.6883254,9.54156413 10.693618,10.390664 9.04518021,11.3350764 C7.94622165,11.9646847 6.3173999,13.1173125 4.15871495,14.7929598 Z" id="Path-11" fill="#3D4F59"></path>
                    <path d="M5.29315299,26.654334 C6.9719292,27.113293 8.2322503,27.3427725 9.0741163,27.3427725 C9.91598229,27.3427725 11.1763034,27.113293 12.8550796,26.654334 L13.1701474,30.3698878 C12.0155435,31.1135807 10.6501393,31.4827428 9.07393486,31.4773742 C7.49773039,31.4720055 6.08883155,31.1028434 4.84723835,30.3698878 L5.29315299,26.654334 Z" id="Path-12" fill="#38484C"></path>
                    <path d="M5.29315299,26.654334 C6.9719292,27.113293 8.2322503,27.3427725 9.0741163,27.3427725 C9.71251664,27.3427725 10.5915466,27.210812 11.7112063,26.9468908 C12.0680549,26.8627761 6.74422511,30.0199798 5.67543484,30.7940229 C5.48618453,30.7110921 5.21011903,30.5697137 4.84723835,30.3698878 L5.29315299,26.654334 Z" id="Path-12" fill="#306F88"></path>
                    <path d="M2.20778032,12.8991228 C3.29084147,16.2809415 3.86086815,18.8503484 3.91786037,20.6073437 C3.95103263,21.6300012 4.20130933,23.9130311 3.91786037,25.3406597 C3.78216993,26.0240827 3.37186753,26.8009942 2.68695317,27.6713942 C2.68695317,27.1244093 2.68695317,26.3474978 2.68695317,25.3406597 C2.68695317,24.3338216 2.68695317,22.4944908 2.68695317,19.8226672 L2.20778032,12.8991228 Z" id="Path-80" fill="#393B3B"></path>
                    <path d="M13.9699802,12.8991228 C15.0530413,16.2809415 15.623068,18.8503484 15.6800602,20.6073437 C15.7132325,21.6300012 15.9635092,23.9130311 15.6800602,25.3406597 C15.5443698,26.0240827 15.1340674,26.8009942 14.449153,27.6713942 C14.449153,27.1244093 14.449153,26.3474978 14.449153,25.3406597 C14.449153,24.3338216 14.449153,22.4944908 14.449153,19.8226672 L13.9699802,12.8991228 Z" id="Path-80" fill="#393B3B" transform="translate(14.891859, 20.285259) scale(-1, 1) translate(-14.891859, -20.285259) "></path>
                </g>
                <path d="M17.56,20.8499852 C18.7066667,20.6677632 19.8533333,20.5766521 21,20.5766521 C22.1466667,20.5766521 23.2933333,20.6677632 24.44,20.8499852 L24.44,22.718696 C23.2933333,22.8954176 22.1466667,22.9837784 21,22.9837784 C19.8533333,22.9837784 18.7214107,22.8954176 17.604232,22.718696 L17.56,20.8499852 Z" id="Rectangle-3" fill="#FFFFFF"></path>
                <path d="M18.0331898,22.2752202 C19.0543497,22.2822585 20.0029019,22.2752202 20.987758,22.2752202 C22.0193743,22.2752202 23.0244754,22.2760013 24.0826068,22.2840139 C24.2821118,22.2968102 24.4527408,22.7146893 24.4463811,22.7157531 C23.3403652,22.9007528 22.1874909,22.9932526 20.987758,22.9932526 C19.7669248,22.9932526 18.6350648,22.8974705 17.592178,22.7059062 C17.592178,22.7059062 17.7024485,22.2954725 18.0331898,22.2752202 Z" id="Rectangle-3" fill="#5ABDD3"></path>
                <path d="M18.0343611,21.4304113 C19.0192172,21.490717 20.0633621,21.4711714 21.0482182,21.4711714 C22.0798344,21.4711714 23.0292891,21.4877857 24.0609054,21.4216176 C24.2604104,21.4088213 24.4750776,20.8736477 24.4282516,20.8658153 C23.3222357,20.6808156 22.2374892,20.5766404 21.0377564,20.5766404 C19.8169231,20.5766404 18.609705,20.6742509 17.5668182,20.8658153 C17.5132435,20.9043185 17.7036198,21.410159 18.0343611,21.4304113 Z" id="Rectangle-3-Copy" fill="#FFFFFF"></path>
            </g>
        </g>
    </g>
</svg>